<svg preserveAspectRatio="none" width="100%" height="100%" overflow="visible" style="display: block;" viewBox="0 0 338 338" fill="none" xmlns="http://www.w3.org/2000/svg">
<g id="Group 31">
<circle id="Ellipse 2" cx="179.632" cy="180.752" r="147.175" fill="var(--fill-0, #242D65)"/>
<path id="Vector" d="M169 0C75.6557 0 0 75.6557 0 169C0 262.344 75.6557 338 169 338C262.344 338 338 262.344 338 169C338 75.6557 262.387 0 169 0ZM272.616 199.646H267.502V194.787C267.502 189.331 266.052 185.325 263.154 182.725C261.023 180.849 255.652 179.954 247.085 179.954H179.954V247.085C179.954 255.695 180.892 261.066 182.725 263.197C185.325 266.095 189.374 267.544 194.787 267.544H199.646V272.659H138.397V267.544H143.341C149.266 267.544 153.443 265.754 155.915 262.174C157.449 259.957 158.174 254.97 158.174 247.128V179.997H90.9147C82.3049 179.997 76.9344 180.934 74.8459 182.767C71.9475 185.367 70.4984 189.416 70.4984 194.829V199.689H65.3836V138.439H70.4984V143.384C70.4984 149.308 72.2885 153.485 75.8688 155.957C78.0852 157.492 83.0721 158.216 90.9147 158.216H158.174V90.9574C158.174 83.1147 157.407 78.0852 155.915 75.9115C153.443 72.3311 149.266 70.541 143.341 70.541H138.397V65.4262H199.646V70.541H194.787C189.374 70.541 185.325 71.9902 182.725 74.8885C180.849 77.0197 179.954 82.3902 179.954 91V158.259H247.085C254.928 158.259 259.957 157.492 262.131 156C265.711 153.528 267.502 149.308 267.502 143.426V138.482H272.616V199.731V199.646Z" fill="var(--fill-0, #355BA5)"/>
</g>
</svg>
