<svg width="20" height="20" viewBox="0 0 20 20" fill="none" xmlns="http://www.w3.org/2000/svg">
<path d="M10 0C4.47667 0 0 4.47667 0 10C0 15.5233 4.47667 20 10 20C15.5233 20 20 15.5233 20 10C20 4.47667 15.5259 0 10 0ZM16.1311 11.8134H15.8285V11.5259C15.8285 11.203 15.7427 10.966 15.5712 10.8121C15.4451 10.7011 15.1274 10.6482 14.6204 10.6482H10.6482V14.6204C10.6482 15.1299 10.7037 15.4477 10.8121 15.5738C10.966 15.7453 11.2055 15.831 11.5259 15.831H11.8134V16.1337H8.18916V15.831H8.48172C8.83228 15.831 9.07944 15.7251 9.22573 15.5132C9.31652 15.3821 9.3594 15.087 9.3594 14.623V10.6507H5.37957C4.87011 10.6507 4.55233 10.7062 4.42875 10.8146C4.25725 10.9685 4.1715 11.2081 4.1715 11.5284V11.8159H3.86885V8.19168H4.1715V8.48424C4.1715 8.8348 4.27743 9.08197 4.48928 9.22825C4.62043 9.31904 4.91551 9.36192 5.37957 9.36192H9.3594V5.38209C9.3594 4.91803 9.314 4.62043 9.22573 4.4918C9.07944 4.27995 8.83228 4.17402 8.48172 4.17402H8.18916V3.87137H11.8134V4.17402H11.5259C11.2055 4.17402 10.966 4.25977 10.8121 4.43127C10.7011 4.55738 10.6482 4.87516 10.6482 5.38462V9.36444H14.6204C15.0845 9.36444 15.3821 9.31904 15.5107 9.23077C15.7226 9.08449 15.8285 8.8348 15.8285 8.48676V8.1942H16.1311V11.8184V11.8134Z" fill="white"/>
</svg>
